<svg width="16" height="16" viewBox="0 0 16 16" fill="none" xmlns="http://www.w3.org/2000/svg">
<path fill-rule="evenodd" clip-rule="evenodd" d="M4.00002 1.66663H9.66669C10.0349 1.66663 10.3334 1.9651 10.3334 2.33329C10.3334 3.80605 11.5273 4.99996 13 4.99996H13.3334C13.8856 4.99996 14.3334 5.44767 14.3334 5.99996V9.99996C14.3334 12.3932 12.3933 14.3333 10 14.3333H6.00002C3.60679 14.3333 1.66669 12.3932 1.66669 9.99996V3.99996C1.66669 2.71129 2.71136 1.66663 4.00002 1.66663ZM11.3334 2.33329C11.3334 1.41282 10.5872 0.666626 9.66669 0.666626H4.00002C2.15907 0.666626 0.666687 2.15901 0.666687 3.99996V9.99996C0.666687 12.9455 3.0545 15.3333 6.00002 15.3333H10C12.9455 15.3333 15.3334 12.9455 15.3334 9.99996V5.99996C15.3334 4.89539 14.4379 3.99996 13.3334 3.99996H13C12.0795 3.99996 11.3334 3.25377 11.3334 2.33329ZM4.66669 8.66663C4.2985 8.66663 4.00002 8.9651 4.00002 9.33329C4.00002 9.70148 4.2985 9.99996 4.66669 9.99996H11.3334C11.7015 9.99996 12 9.70148 12 9.33329C12 8.9651 11.7015 8.66663 11.3334 8.66663H4.66669Z" fill="#667085"/>
</svg>
