<svg width="16" height="16" viewBox="0 0 16 16" fill="none" xmlns="http://www.w3.org/2000/svg">
<path fill-rule="evenodd" clip-rule="evenodd" d="M14.2785 4.56098C14.3436 4.52722 14.4098 4.4952 14.4769 4.46501C14.6538 4.38539 14.8373 4.31842 15.0262 4.2653C15.0426 4.26069 15.059 4.25619 15.0755 4.25179C15.1028 4.24448 15.1303 4.23746 15.1579 4.23073C15.2536 4.19891 15.3334 4.11935 15.3334 4.00798C15.3174 3.8966 15.2536 3.80113 15.142 3.78522C15.1089 3.77724 15.0759 3.76885 15.0431 3.76005L14.9972 3.74744C14.8169 3.69676 14.6419 3.63393 14.4732 3.55982C14.4057 3.53015 14.3391 3.49867 14.2736 3.46545C13.5258 3.08603 12.9164 2.47851 12.534 1.7283C12.4989 1.65945 12.4657 1.58941 12.4345 1.51822C12.3587 1.34515 12.2945 1.16537 12.243 0.979826L12.235 0.9502C12.2253 0.914246 12.2161 0.87808 12.2074 0.841707C12.1755 0.746241 12.0957 0.666687 11.9841 0.666687C11.8724 0.666687 11.7927 0.730331 11.7608 0.841707C11.7521 0.879838 11.7428 0.917742 11.733 0.955412C11.7287 0.971851 11.7243 0.988244 11.7199 1.00459C11.6706 1.18444 11.6091 1.35881 11.5364 1.52682C11.5064 1.59618 11.4745 1.66445 11.4407 1.73159C11.065 2.47793 10.4604 3.08277 9.71734 3.46186C9.65192 3.49524 9.58543 3.52686 9.51793 3.55668C9.34469 3.6332 9.16479 3.69782 8.97927 3.74957L8.95803 3.75543C8.91963 3.76592 8.88099 3.77585 8.84213 3.78522C8.74643 3.81704 8.66669 3.8966 8.66669 4.00798C8.66669 4.11935 8.73048 4.19891 8.84213 4.23073C8.88055 4.2401 8.91876 4.25004 8.95676 4.26054C8.97278 4.26496 8.98876 4.26949 9.0047 4.27411C9.18198 4.32554 9.35443 4.38919 9.52105 4.46405C9.58652 4.49346 9.65109 4.52461 9.71469 4.55743C10.4572 4.9405 11.0686 5.55118 11.4516 6.29242C11.4844 6.35579 11.5154 6.4201 11.5448 6.48531C11.6223 6.65766 11.6878 6.83624 11.7401 7.01995L11.7461 7.04142C11.7569 7.08017 11.7671 7.11914 11.7767 7.15833C11.8086 7.2538 11.8884 7.33335 12 7.33335C12.1117 7.33335 12.1914 7.26971 12.2233 7.15833C12.2329 7.11914 12.2431 7.08017 12.2539 7.04142C12.2583 7.02571 12.2627 7.01005 12.2673 6.99442C12.3188 6.81795 12.3825 6.64628 12.4575 6.4804C12.4862 6.41687 12.5165 6.3542 12.5484 6.29242C12.9303 5.55347 13.5391 4.94427 14.2785 4.56098ZM12 5.26981C12.3394 4.7828 12.7634 4.35798 13.2499 4.01747C12.7581 3.67848 12.3311 3.25315 11.9898 2.76184C11.6524 3.2507 11.2292 3.67387 10.7419 4.01169C11.2318 4.35317 11.6587 4.78004 12 5.26981ZM4.5879 3.54339C4.54942 3.6498 4.50753 3.75453 4.46236 3.85744C3.95033 5.02411 3.01715 5.95757 1.85534 6.46964C1.75554 6.51363 1.65406 6.55451 1.55102 6.59215C1.36726 6.65929 1.17852 6.71616 0.985503 6.76209C0.965225 6.76691 0.944899 6.77162 0.924527 6.7762C0.894238 6.78301 0.863846 6.78956 0.833354 6.79583C0.742445 6.81096 0.666687 6.90171 0.666687 7.00758C0.666687 7.11346 0.742445 7.18908 0.833354 7.21933C0.85777 7.22436 0.882122 7.22956 0.906408 7.23493L0.924527 7.23897C1.13725 7.28682 1.34491 7.34792 1.54658 7.42137C1.65118 7.45946 1.75417 7.50087 1.85543 7.54547C3.01689 8.05711 3.94986 8.98878 4.46196 10.1484C4.50562 10.2473 4.54621 10.3478 4.58363 10.4499C4.65084 10.6332 4.7078 10.8214 4.75382 11.0139C4.7587 11.0343 4.76345 11.0548 4.76808 11.0753C4.77496 11.1058 4.78157 11.1363 4.7879 11.167C4.80305 11.2729 4.89396 11.3334 5.00002 11.3334C5.10608 11.3334 5.18184 11.2577 5.21214 11.167C5.21646 11.1461 5.22091 11.1252 5.22548 11.1044L5.23196 11.0753C5.27967 10.8641 5.34051 10.6579 5.41358 10.4576C5.45178 10.3529 5.49332 10.2498 5.53808 10.1484C6.05018 8.98878 6.98315 8.05711 8.14462 7.54547C8.24444 7.5015 8.34594 7.46063 8.44901 7.42299C8.63277 7.35587 8.82151 7.29901 9.01454 7.25308C9.03481 7.24825 9.05514 7.24355 9.07551 7.23897C9.1058 7.23215 9.13619 7.22561 9.16669 7.21933C9.2576 7.18908 9.33335 7.11346 9.33335 7.00758C9.33335 6.90171 9.2576 6.82608 9.16669 6.79583C9.13619 6.78956 9.1058 6.78301 9.07551 6.7762C9.05514 6.77162 9.03481 6.76691 9.01454 6.76209C8.82152 6.71616 8.63278 6.65929 8.44902 6.59215C8.34598 6.55451 8.2445 6.51363 8.1447 6.46964C6.98289 5.95757 6.04971 5.02411 5.53768 3.85744C5.4936 3.75702 5.45265 3.65487 5.41494 3.55111C5.34822 3.36755 5.29166 3.17896 5.24593 2.98601C5.24104 2.96538 5.23627 2.94471 5.23163 2.92399C5.22487 2.89378 5.21837 2.86347 5.21214 2.83306C5.19699 2.72719 5.10608 2.66669 5.00002 2.66669C4.89396 2.66669 4.8182 2.74231 4.7879 2.83306C4.78361 2.85398 4.7792 2.87485 4.77466 2.89567L4.76841 2.92399C4.72096 3.13588 4.6605 3.34263 4.5879 3.54339ZM5.00002 4.98407C4.49625 5.80929 3.80264 6.50348 2.9795 7.0074C3.80251 7.5107 4.49619 8.20353 5.00002 9.02575C5.50385 8.20353 6.19753 7.5107 7.02054 7.0074C6.1974 6.50348 5.50378 5.80929 5.00002 4.98407ZM12.4704 12.4516C12.4016 12.4826 12.3338 12.5155 12.267 12.5503C11.5305 12.9337 10.9216 13.5411 10.5439 14.2809C10.5112 14.3449 10.4803 14.4098 10.4511 14.4757C10.3771 14.6432 10.3146 14.8167 10.2649 14.9952C10.2606 15.0107 10.2563 15.0263 10.2522 15.0418C10.242 15.0804 10.2323 15.1193 10.2233 15.1583C10.1914 15.2697 10.1117 15.3334 10 15.3334C9.88838 15.3334 9.80863 15.2538 9.77673 15.1583C9.76771 15.1215 9.75816 15.0849 9.74808 15.0484L9.7401 15.0199C9.68782 14.8362 9.62235 14.6577 9.54479 14.4853C9.51433 14.4176 9.48202 14.3509 9.44791 14.2853C9.06463 13.5473 8.4548 12.9393 7.71474 12.5575C7.65112 12.5246 7.58654 12.4935 7.52105 12.464C7.35443 12.3892 7.18198 12.3255 7.0047 12.2741C6.98876 12.2695 6.97278 12.265 6.95676 12.2605C6.91876 12.25 6.88055 12.2401 6.84213 12.2307C6.73048 12.1989 6.66669 12.1194 6.66669 12.008C6.66669 11.8966 6.74643 11.817 6.84213 11.7852C6.88099 11.7758 6.91963 11.7659 6.95803 11.7554L6.97927 11.7496C7.16477 11.6978 7.34467 11.6332 7.51794 11.5567C7.58546 11.5269 7.65198 11.4953 7.71743 11.4619C8.464 11.0813 9.07207 10.473 9.45309 9.72246C9.48627 9.6571 9.51772 9.59066 9.5474 9.5232C9.62073 9.35651 9.6832 9.18357 9.73391 9.00523C9.73859 8.98877 9.74317 8.97227 9.74765 8.95572C9.75787 8.91795 9.76757 8.87994 9.77673 8.84171C9.80863 8.73033 9.88838 8.66669 10 8.66669C10.1117 8.66669 10.1914 8.74624 10.2233 8.84171C10.2325 8.87994 10.2422 8.91795 10.2524 8.95572L10.259 8.97983C10.3105 9.16537 10.3746 9.34515 10.4505 9.51822C10.4808 9.58739 10.513 9.65549 10.547 9.72246C10.925 10.4671 11.5264 11.0716 12.2649 11.4528C12.3317 11.4873 12.3995 11.5199 12.4684 11.5506C12.6399 11.6271 12.8179 11.6919 13.0014 11.7441L13.0462 11.7566C13.0832 11.7666 13.1204 11.7762 13.1579 11.7852C13.2536 11.8011 13.3174 11.8966 13.3334 11.9921C13.3334 12.1034 13.2536 12.183 13.1579 12.2148C13.133 12.2209 13.1081 12.2272 13.0833 12.2338L13.0474 12.2435C12.849 12.298 12.6562 12.3679 12.4704 12.4516ZM11.2451 12.0031C10.7579 12.3437 10.3321 12.7693 9.99249 13.259C9.65253 12.7739 9.22839 12.3509 8.74226 12.0119C9.23333 11.672 9.65957 11.2457 10 10.7536C10.3375 11.2415 10.7594 11.6646 11.2451 12.0031Z" fill="#CC8406"/>
</svg>
