<svg width="16" height="16" viewBox="0 0 16 16" fill="none" xmlns="http://www.w3.org/2000/svg">
<path fill-rule="evenodd" clip-rule="evenodd" d="M7.71529 0.666626C11.6019 0.666626 14.7632 3.75826 14.7632 7.55911C14.7632 9.35233 14.0595 10.9879 12.908 12.2153L15.1739 14.4266C15.3859 14.634 15.3867 14.9695 15.1746 15.1769C15.0689 15.2816 14.9293 15.3333 14.7903 15.3333C14.6521 15.3333 14.5131 15.2816 14.4067 15.1783L12.1135 12.9419C10.9071 13.8867 9.37752 14.4523 7.71529 14.4523C3.82872 14.4523 0.666626 11.36 0.666626 7.55911C0.666626 3.75826 3.82872 0.666626 7.71529 0.666626ZM7.71529 1.72831C4.42726 1.72831 1.75226 4.34361 1.75226 7.55911C1.75226 10.7746 4.42726 13.3906 7.71529 13.3906C11.0026 13.3906 13.6776 10.7746 13.6776 7.55911C13.6776 4.34361 11.0026 1.72831 7.71529 1.72831Z" fill="#667085"/>
</svg>
