<svg width="26" height="26" viewBox="0 0 26 26" fill="none" xmlns="http://www.w3.org/2000/svg">
<path fill-rule="evenodd" clip-rule="evenodd" d="M6.33709 6.33709C6.5129 6.16127 6.75136 6.0625 7 6.0625H13.75C13.9986 6.0625 14.2371 6.16127 14.4129 6.33709C14.5887 6.5129 14.6875 6.75136 14.6875 7V7.75C14.6875 8.06066 14.9393 8.3125 15.25 8.3125C15.5607 8.3125 15.8125 8.06066 15.8125 7.75V7C15.8125 6.45299 15.5952 5.92839 15.2084 5.54159C14.8216 5.1548 14.297 4.9375 13.75 4.9375H7C6.45299 4.9375 5.92839 5.1548 5.54159 5.54159C5.1548 5.92839 4.9375 6.45299 4.9375 7V13.75C4.9375 14.297 5.1548 14.8216 5.54159 15.2084C5.92839 15.5952 6.45299 15.8125 7 15.8125H7.75C8.06066 15.8125 8.3125 15.5607 8.3125 15.25C8.3125 14.9393 8.06066 14.6875 7.75 14.6875H7C6.75136 14.6875 6.5129 14.5887 6.33709 14.4129C6.16127 14.2371 6.0625 13.9986 6.0625 13.75V7C6.0625 6.75136 6.16127 6.5129 6.33709 6.33709ZM11.3125 12.25C11.3125 11.7322 11.7322 11.3125 12.25 11.3125H19C19.5178 11.3125 19.9375 11.7322 19.9375 12.25V19C19.9375 19.5178 19.5178 19.9375 19 19.9375H12.25C11.7322 19.9375 11.3125 19.5178 11.3125 19V12.25ZM12.25 10.1875C11.1109 10.1875 10.1875 11.1109 10.1875 12.25V19C10.1875 20.1391 11.1109 21.0625 12.25 21.0625H19C20.1391 21.0625 21.0625 20.1391 21.0625 19V12.25C21.0625 11.1109 20.1391 10.1875 19 10.1875H12.25Z" fill="#667085"/>
</svg>
