<svg width="16" height="16" viewBox="0 0 16 16" fill="none" xmlns="http://www.w3.org/2000/svg">
<path d="M11.5659 6.7796C11.73 6.569 11.6912 6.26566 11.4793 6.10208C11.2674 5.93721 10.9638 5.9765 10.7997 6.18838L9.20601 8.23831L7.38425 6.8118C7.28283 6.73129 7.15492 6.69523 7.02442 6.71197C6.89651 6.72807 6.77959 6.79441 6.70077 6.89681L4.76725 9.40207C4.60381 9.61331 4.64386 9.91665 4.85576 10.0796C4.94361 10.1466 5.04762 10.1794 5.15099 10.1794C5.29634 10.1794 5.43975 10.1144 5.53536 9.99071L7.17042 7.87251L8.99089 9.29838C9.09296 9.3776 9.22087 9.41495 9.35007 9.39756C9.47799 9.3821 9.59427 9.31577 9.67308 9.21401L11.5659 6.7796Z" fill="#667085"/>
<path fill-rule="evenodd" clip-rule="evenodd" d="M14.6666 5.26206C14.6666 2.91229 13.1553 1.33337 10.906 1.33337H5.09393C2.84463 1.33337 1.33331 2.91229 1.33331 5.26206V10.738C1.33331 13.0878 2.84463 14.6667 5.09393 14.6667H10.906C13.1553 14.6667 14.6666 13.0878 14.6666 10.738V5.26206ZM5.09393 2.26361H10.906C12.6257 2.26361 13.7364 3.44004 13.7364 5.26206V10.738C13.7364 12.56 12.6257 13.7365 10.906 13.7365H5.09393C3.37486 13.7365 2.26355 12.56 2.26355 10.738V5.26206C2.26355 3.44004 3.37486 2.26361 5.09393 2.26361Z" fill="#667085"/>
</svg>
