<svg width="26" height="26" viewBox="0 0 26 26" fill="none" xmlns="http://www.w3.org/2000/svg">
<path fill-rule="evenodd" clip-rule="evenodd" d="M18.2335 10.5402C18.5356 10.5657 18.7609 10.8365 18.7367 11.1462C18.7323 11.1972 18.3359 16.2306 18.1077 18.3418C17.9658 19.6521 17.1218 20.4494 15.8477 20.4734C14.8728 20.4906 13.9322 20.5004 13.0129 20.5004C12.0218 20.5004 11.0557 20.4891 10.0997 20.4689C8.87686 20.4441 8.03064 19.6311 7.89241 18.3471C7.66202 16.2171 7.2678 11.1965 7.26415 11.1462C7.23928 10.8365 7.46455 10.565 7.76661 10.5402C8.06429 10.532 8.33344 10.7465 8.35757 11.0555C8.35991 11.088 8.52107 13.1383 8.69669 15.1668L8.73197 15.5716C8.82042 16.5799 8.91008 17.5488 8.98291 18.2233C9.06117 18.9531 9.44515 19.3296 10.1224 19.3438C11.9509 19.3836 13.8167 19.3858 15.828 19.3483C16.5477 19.3341 16.9368 18.9651 17.0172 18.2181C17.244 16.1226 17.6389 11.1065 17.6433 11.0555C17.6674 10.7465 17.9344 10.5305 18.2335 10.5402ZM14.5479 5.50037C15.2193 5.50037 15.8096 5.96462 15.9829 6.62988L16.1687 7.57565C16.2287 7.88568 16.494 8.1121 16.8012 8.11707L19.2015 8.11716C19.5043 8.11716 19.75 8.36916 19.75 8.67966C19.75 8.99017 19.5043 9.24217 19.2015 9.24217L16.8227 9.24206C16.819 9.24213 16.8153 9.24217 16.8116 9.24217L16.7937 9.24142L9.206 9.24208C9.2001 9.24214 9.1942 9.24217 9.18829 9.24217L9.17702 9.24142L6.79854 9.24217C6.49575 9.24217 6.25 8.99017 6.25 8.67966C6.25 8.36916 6.49575 8.11716 6.79854 8.11716L9.19823 8.11641L9.27212 8.11161C9.54733 8.07499 9.77606 7.86065 9.83191 7.57565L10.0096 6.66363C10.1903 5.96462 10.7805 5.50037 11.4519 5.50037H14.5479ZM14.5479 6.62538H11.4519C11.2764 6.62538 11.1221 6.74613 11.0775 6.91939L10.9071 7.7969C10.8854 7.90805 10.8539 8.01516 10.8135 8.11736H15.1866C15.1462 8.01516 15.1146 7.90805 15.0928 7.7969L14.9151 6.88489C14.8778 6.74613 14.7234 6.62538 14.5479 6.62538Z" fill="#667085"/>
</svg>
