<svg width="26" height="26" viewBox="0 0 26 26" fill="none" xmlns="http://www.w3.org/2000/svg">
<path fill-rule="evenodd" clip-rule="evenodd" d="M20.2692 19.3119C20.6036 19.3119 20.875 19.578 20.875 19.9059C20.875 20.2338 20.6036 20.4999 20.2692 20.4999H14.4112C14.0768 20.4999 13.8054 20.2338 13.8054 19.9059C13.8054 19.578 14.0768 19.3119 14.4112 19.3119H20.2692ZM16.5263 6.01768C16.5667 6.04857 17.9179 7.07815 17.9179 7.07815C18.409 7.36485 18.7927 7.87727 18.938 8.48393C19.0826 9.08426 18.9776 9.7036 18.6408 10.2271C18.6386 10.2306 18.6363 10.234 18.6285 10.2443L18.6225 10.2522C18.5678 10.3229 18.3301 10.6175 17.1307 12.0911C17.1196 12.1104 17.1069 12.1285 17.0932 12.1461C17.0729 12.172 17.0509 12.1958 17.0274 12.2175C16.9456 12.3185 16.8592 12.4246 16.7683 12.5362L16.5843 12.7623C16.2044 13.2288 15.7539 13.7819 15.2193 14.438L14.945 14.7747C13.9131 16.0412 12.5915 17.6628 10.8985 19.7397C10.5277 20.1927 9.97206 20.4564 9.3752 20.4636L6.43607 20.5H6.428C6.14774 20.5 5.90382 20.3115 5.8384 20.043L5.17691 17.294C5.04042 16.7246 5.1761 16.1369 5.54844 15.6807L13.1567 6.34952C13.1599 6.34635 13.1624 6.34239 13.1656 6.33923C13.9999 5.36112 15.5087 5.21698 16.5263 6.01768ZM12.3084 9.29125L6.49423 16.4228C6.35611 16.5923 6.30523 16.8109 6.35611 17.0208L6.90614 19.3057L9.36066 19.2756C9.59407 19.2732 9.80972 19.171 9.95268 18.9968C10.6889 18.0936 11.6141 16.9584 12.5654 15.7911L12.9019 15.3781L13.2391 14.9644C14.1312 13.8697 15.0126 12.7879 15.75 11.8825L12.3084 9.29125ZM14.0985 7.09716L13.0652 8.36304L16.5065 10.9536C17.1689 10.14 17.6047 9.6042 17.645 9.55312C17.7774 9.34245 17.8291 9.04466 17.7596 8.75796C17.6886 8.46413 17.502 8.21466 17.233 8.05547C17.1757 8.01666 15.8148 6.98074 15.7728 6.94827C15.2607 6.54594 14.5136 6.61563 14.0985 7.09716Z" fill="#667085"/>
</svg>
