<svg width="16" height="16" viewBox="0 0 16 16" fill="none" xmlns="http://www.w3.org/2000/svg">
<path fill-rule="evenodd" clip-rule="evenodd" d="M11.3488 1.33337C13.6204 1.33337 15.3334 3.19115 15.3334 5.65474V10.3508C15.3334 11.6117 14.8886 12.7508 14.0802 13.559C13.3551 14.2831 12.4143 14.6667 11.3597 14.6667H4.63828C3.58569 14.6667 2.64566 14.2838 1.91983 13.559C1.11146 12.7508 0.666687 11.6117 0.666687 10.3508V5.65474C0.666687 3.19115 2.37962 1.33337 4.65124 1.33337H11.3488ZM11.3488 2.35902H4.65124C2.93559 2.35902 1.68994 3.745 1.68994 5.65474V10.3508C1.68994 11.3375 2.0283 12.2188 2.64225 12.8322C3.17162 13.3621 3.86266 13.6411 4.64033 13.6411H11.3488C11.3502 13.6397 11.3556 13.6411 11.3597 13.6411C12.1381 13.6411 12.8284 13.3621 13.3578 12.8322C13.9724 12.2188 14.3101 11.3375 14.3101 10.3508V5.65474C14.3101 3.745 13.0645 2.35902 11.3488 2.35902ZM12.4239 5.52401C12.6019 5.74349 12.5685 6.06623 12.3495 6.24537L9.31797 8.71512C8.93459 9.02008 8.47618 9.17255 8.01844 9.17255C7.56207 9.17255 7.10706 9.02144 6.72641 8.71922L3.66687 6.24674C3.44653 6.06896 3.41242 5.74555 3.58911 5.52537C3.76715 5.30589 4.08914 5.27102 4.3088 5.44811L7.3656 7.91785C7.74966 8.22281 8.29062 8.22281 8.67741 7.91512L11.7035 5.44948C11.9232 5.26965 12.2452 5.30384 12.4239 5.52401Z" fill="#667085"/>
</svg>
