<svg width="16" height="16" viewBox="0 0 16 16" fill="none" xmlns="http://www.w3.org/2000/svg">
<path fill-rule="evenodd" clip-rule="evenodd" d="M9.99706 1.84456L9.48543 1.30853C8.66025 0.449125 7.32273 0.453524 6.50454 1.3166L6.00411 1.84236C5.80324 2.04988 5.53868 2.16501 5.25802 2.16501H4.53712C3.37528 2.16574 2.43041 3.1564 2.43041 4.37365V5.12527C2.43041 5.41931 2.32052 5.69723 2.12385 5.90475L1.61432 6.44004L1.59542 6.45984C0.792634 7.32511 0.802433 8.71248 1.61992 9.56456L2.12315 10.0911C2.32052 10.2993 2.43041 10.5758 2.43041 10.8705V11.6265C2.43041 12.8438 3.37528 13.8345 4.53782 13.8345H5.25592C5.53728 13.8352 5.80184 13.9496 5.99991 14.1556L6.49685 14.6755C6.50244 14.6821 6.50804 14.688 6.51364 14.6939C6.92449 15.1206 7.46131 15.3333 7.99814 15.3333C8.53986 15.3333 9.08159 15.1162 9.49243 14.6829L9.99496 14.1564C10.1916 13.9518 10.4625 13.8345 10.7397 13.8345H11.4613C12.6231 13.8345 13.5687 12.8438 13.5687 11.6265V10.872C13.5687 10.5772 13.6779 10.3008 13.8745 10.0933L14.3876 9.55723C14.7844 9.13852 15.0021 8.58343 15 7.99313C14.9979 7.40284 14.7767 6.84921 14.3785 6.43491L13.8759 5.90768C13.6779 5.69869 13.5687 5.42078 13.5687 5.12673V4.37365C13.5687 3.15567 12.6231 2.16501 11.4606 2.16501H10.7411C10.4597 2.16501 10.1951 2.05061 9.99706 1.84456ZM6.74531 2.62184L7.24854 2.09314C7.65939 1.65977 8.33059 1.65757 8.75123 2.09388L9.25656 2.62404C9.65341 3.03688 10.1804 3.26493 10.7411 3.26493H11.4606C12.0443 3.26493 12.5188 3.76209 12.5188 4.37365V5.12673C12.5188 5.71409 12.7358 6.26552 13.1326 6.68423L13.6373 7.21366C13.8381 7.42337 13.9494 7.70129 13.9501 7.9968C13.9508 8.29305 13.8409 8.57243 13.6359 8.78801L13.1319 9.31671C12.7358 9.73248 12.5188 10.2846 12.5188 10.872V11.6265C12.5188 12.2374 12.0443 12.7345 11.4606 12.7345H10.7397C10.1874 12.7345 9.64571 12.9685 9.25376 13.3784L8.74843 13.9063C8.33829 14.3382 7.67338 14.3434 7.26044 13.921L7.24644 13.9049L6.74181 13.3776C6.34497 12.9633 5.81794 12.7353 5.25662 12.7345H4.53782C3.9541 12.7345 3.48026 12.2374 3.48026 11.6265V10.8705C3.48026 10.2832 3.26259 9.73101 2.86645 9.31451L2.36112 8.78508C1.94747 8.35464 1.94537 7.65142 2.35622 7.21805C2.35785 7.21634 2.35948 7.21472 2.36112 7.21309C2.36438 7.20983 2.36765 7.20657 2.37092 7.20266L2.86785 6.68129C3.26259 6.26479 3.48026 5.71263 3.48026 5.12527V4.37365C3.48026 3.76283 3.9548 3.26566 4.53782 3.26493H5.25802C5.81654 3.26493 6.34357 3.03761 6.74531 2.62184ZM7.458 5.93707C7.62867 5.87307 7.80867 5.8424 7.998 5.84507C8.18733 5.84507 8.36467 5.87174 8.53 5.92507C8.69533 5.97574 8.83533 6.04507 8.95 6.13307C9.11417 6.25906 9.3368 6.36776 9.53145 6.29752L9.63944 6.25855C9.89244 6.16725 10.0286 5.87993 9.86119 5.66937C9.81427 5.61033 9.76254 5.55423 9.706 5.50107C9.53 5.3304 9.32333 5.19307 9.086 5.08907C8.84867 4.98507 8.598 4.91707 8.334 4.88507V4.39907C8.334 4.21461 8.18446 4.06507 8 4.06507C7.81554 4.06507 7.666 4.21461 7.666 4.39907V4.88507C7.34333 4.92507 7.04867 5.01974 6.782 5.16907C6.518 5.31574 6.306 5.50774 6.146 5.74507C5.98867 5.9824 5.91 6.25307 5.91 6.55707C5.91 6.91707 6.00067 7.2104 6.182 7.43707C6.366 7.66374 6.61533 7.84107 6.93 7.96907C7.24467 8.09707 7.60067 8.19174 7.998 8.25307C8.17933 8.2824 8.35533 8.32507 8.526 8.38107C8.69667 8.43707 8.83667 8.51307 8.946 8.60907C9.05533 8.7024 9.11 8.8224 9.11 8.96907C9.11 9.11307 9.058 9.23974 8.954 9.34907C8.85 9.45574 8.71267 9.53974 8.542 9.60107C8.374 9.65974 8.19267 9.68907 7.998 9.68907C7.80867 9.68907 7.63133 9.6624 7.466 9.60907C7.30067 9.55573 7.16067 9.48507 7.046 9.39707C6.88209 9.27128 6.6592 9.16332 6.46522 9.23447L6.35704 9.27415C6.10587 9.36629 5.97181 9.65219 6.13651 9.86302C6.18189 9.92111 6.23172 9.97646 6.286 10.0291C6.462 10.1971 6.66867 10.3331 6.906 10.4371C7.14333 10.5411 7.39667 10.6091 7.666 10.6411V11.1231C7.666 11.3075 7.81554 11.4571 8 11.4571C8.18446 11.4571 8.334 11.3075 8.334 11.1231V10.6411C8.65667 10.6011 8.95 10.5064 9.214 10.3571C9.48067 10.2077 9.69267 10.0157 9.85 9.78107C10.0073 9.54374 10.086 9.27307 10.086 8.96907C10.086 8.63574 9.99 8.3544 9.798 8.12507C9.606 7.89307 9.35133 7.70774 9.034 7.56907C8.71667 7.4304 8.37133 7.33174 7.998 7.27307C7.79267 7.2384 7.606 7.20107 7.438 7.16107C7.27 7.1184 7.13533 7.05174 7.034 6.96107C6.93533 6.8704 6.886 6.73574 6.886 6.55707C6.886 6.4184 6.93933 6.29574 7.046 6.18907C7.15267 6.0824 7.29 5.9984 7.458 5.93707Z" fill="#667085"/>
</svg>
