<svg width="24" height="24" viewBox="0 0 24 24" fill="none" xmlns="http://www.w3.org/2000/svg">
<path fill-rule="evenodd" clip-rule="evenodd" d="M5.4063 7.87706C5.4063 5.35325 7.90855 2.54079 11.4986 2.54079C15.0886 2.54079 17.5909 5.35325 17.5909 7.87706C17.5909 10.0126 18.1836 10.9997 18.7074 11.8708C19.1275 12.5703 19.4593 13.1229 19.4624 14.257C19.2919 16.2158 17.973 17.279 11.4986 17.279C4.98824 17.279 3.70938 16.261 3.53784 14.3237C3.53784 13.1229 3.86962 12.5703 4.28975 11.8708C4.81361 10.9997 5.4063 10.0126 5.4063 7.87706ZM2.00001 14.3895C2.3544 18.4808 6.69531 18.8197 11.4985 18.8197C16.3016 18.8197 20.6415 18.4808 21 14.3237C21 12.6966 20.4833 11.8359 20.0272 11.0778C19.566 10.3094 19.1315 9.58528 19.1315 7.87706C19.1315 4.55614 16.0643 1 11.4985 1C6.93259 1 3.8654 4.55614 3.8654 7.87706C3.8654 9.58528 3.43089 10.3094 2.96968 11.0778C2.51361 11.8359 1.99693 12.6966 2.00001 14.3895ZM8.37816 21.6548C9.20505 22.5762 10.2949 23.0836 11.4464 23.0846H11.4484C12.603 23.0846 13.6949 22.5772 14.5249 21.6558C14.8094 21.3405 14.7837 20.8526 14.4674 20.568C14.152 20.2835 13.6651 20.3092 13.3796 20.6245C12.8464 21.2182 12.1603 21.5439 11.4484 21.5439H11.4474C10.7386 21.5439 10.0556 21.2182 9.5235 20.6255C9.23895 20.3081 8.75206 20.2825 8.43568 20.568C8.11931 20.8515 8.09363 21.3394 8.37816 21.6548Z" fill="#667085"/>
</svg>
